<?xml version="1.0" standalone="no"?>
<!DOCTYPE svg PUBLIC "-//W3C//DTD SVG 20010904//EN"
 "http://www.w3.org/TR/2001/REC-SVG-20010904/DTD/svg10.dtd">
<svg version="1.0" xmlns="http://www.w3.org/2000/svg"
 width="1600.000000pt" height="1541.000000pt" viewBox="0 0 1600.000000 1541.000000"
 preserveAspectRatio="xMidYMid meet">
<metadata>
Created by potrace 1.16, written by Peter Selinger 2001-2019
</metadata>
<g transform="translate(0.000000,1541.000000) scale(0.100000,-0.100000)"
fill="#000000" stroke="none">
<path d="M12330 13841 c-62 -8 -158 -36 -198 -57 -15 -8 -31 -14 -37 -14 -12
0 -69 -46 -144 -115 -47 -44 -131 -145 -131 -159 0 -3 -13 -24 -29 -48 -81
-122 -103 -321 -56 -508 15 -57 33 -114 42 -127 8 -12 12 -23 8 -23 -3 0 3
-13 15 -30 12 -16 19 -30 16 -30 -4 0 9 -30 27 -66 l33 -66 -144 -142 c-79
-77 -277 -273 -439 -433 -163 -161 -299 -293 -302 -293 -4 0 -164 -158 -356
-350 -193 -193 -358 -355 -368 -361 -15 -8 -32 -1 -90 38 -40 26 -74 50 -77
53 -10 11 -87 59 -132 83 -25 14 -63 36 -85 50 -41 26 -228 119 -308 153 -127
55 -224 94 -234 94 -6 0 -25 6 -43 14 -71 29 -238 77 -313 89 -16 3 -59 12
-95 21 -174 41 -430 73 -670 83 -144 5 -498 -23 -635 -50 -38 -8 -92 -18 -120
-22 -27 -4 -57 -11 -65 -15 -9 -5 -34 -11 -57 -15 -23 -3 -68 -13 -100 -21
-32 -9 -67 -17 -78 -20 -28 -5 -114 -34 -153 -50 -18 -8 -37 -14 -42 -14 -6 0
-29 -9 -53 -19 -23 -10 -103 -44 -178 -75 -74 -31 -175 -79 -225 -107 -49 -28
-123 -69 -164 -91 -41 -22 -82 -47 -91 -54 -8 -8 -21 -14 -27 -14 -7 0 -12 -3
-12 -7 0 -5 -25 -24 -55 -43 -30 -19 -54 -38 -55 -42 0 -4 -14 -15 -30 -23
-28 -15 -32 -15 -54 2 -12 10 -181 176 -374 368 -193 192 -357 352 -364 354
-7 2 -123 112 -258 245 -135 132 -313 308 -396 390 l-152 149 44 86 c24 47 44
91 44 98 0 8 6 24 14 36 8 12 25 60 37 107 31 117 31 316 1 405 -41 120 -109
224 -212 324 -89 87 -126 109 -280 163 -59 21 -83 23 -250 23 -157 0 -189 -3
-215 -18 -16 -9 -35 -17 -42 -17 -16 0 -117 -51 -121 -62 -2 -4 -9 -8 -16 -8
-20 0 -156 -137 -156 -157 0 -4 -9 -16 -19 -27 -49 -53 -131 -314 -131 -417
l0 -49 -62 0 c-195 0 -376 -88 -493 -240 -54 -70 -118 -186 -111 -199 4 -5 2
-12 -4 -16 -5 -3 -10 -18 -10 -32 0 -14 -7 -49 -16 -79 -11 -39 -14 -83 -11
-166 4 -116 14 -167 51 -253 21 -50 112 -185 124 -185 4 0 28 -19 52 -43 78
-73 211 -151 290 -168 19 -4 62 -14 95 -23 78 -20 206 -20 292 0 37 9 79 18
93 20 14 2 58 16 98 30 l72 26 36 -31 c41 -37 138 -131 377 -366 94 -94 276
-269 402 -389 127 -120 242 -230 256 -245 54 -53 445 -429 483 -462 l38 -35
-16 -32 c-9 -18 -21 -32 -26 -32 -6 0 -10 -7 -10 -16 0 -9 -8 -28 -19 -42 -50
-71 -201 -346 -201 -367 0 -3 -15 -38 -34 -78 -30 -64 -59 -137 -122 -301
l-19 -49 -70 -17 c-38 -9 -106 -25 -150 -35 -44 -9 -111 -25 -150 -35 -116
-30 -183 -45 -258 -60 -26 -5 -56 -14 -67 -20 -10 -5 -29 -10 -42 -10 -12 0
-40 -6 -63 -14 -22 -8 -74 -24 -115 -36 -41 -12 -95 -30 -120 -38 -25 -9 -47
-16 -50 -17 -18 -1 -361 -114 -440 -145 -87 -34 -121 -46 -193 -74 -99 -37
-190 -78 -208 -93 -8 -7 -20 -13 -26 -13 -12 0 -82 -35 -143 -72 -19 -11 -53
-27 -75 -35 -21 -7 -42 -17 -45 -21 -5 -8 -45 -29 -215 -116 -60 -31 -114 -60
-120 -64 -5 -5 -18 -11 -27 -15 -32 -12 -19 -27 22 -27 22 0 41 0 43 1 1 0 15
-4 30 -10 27 -11 208 -46 292 -57 22 -3 72 -12 110 -20 39 -8 104 -21 145 -29
41 -7 93 -18 115 -23 22 -6 85 -18 140 -26 55 -9 150 -25 210 -36 212 -37 301
-50 425 -64 31 -3 173 -23 260 -36 36 -6 101 -15 145 -20 44 -6 112 -15 150
-20 39 -6 108 -13 155 -16 47 -3 99 -7 116 -10 l32 -5 6 -112 c12 -201 61
-467 126 -687 71 -236 97 -311 145 -415 71 -154 139 -290 154 -308 13 -16 1
-31 -160 -185 -96 -92 -217 -210 -270 -262 -238 -236 -284 -280 -289 -280 -3
0 -133 -126 -289 -280 -156 -154 -286 -280 -288 -280 -3 0 -46 -42 -96 -93
-51 -51 -105 -103 -120 -115 l-29 -23 -71 25 c-40 14 -94 31 -122 37 -27 6
-59 13 -70 16 -11 3 -65 7 -120 10 -85 4 -116 1 -204 -21 -97 -24 -251 -90
-251 -108 0 -4 -6 -8 -12 -8 -13 0 -72 -47 -133 -105 -41 -39 -105 -128 -133
-186 -42 -86 -51 -135 -51 -273 0 -212 43 -335 173 -498 33 -42 66 -77 72 -78
6 0 21 -11 34 -25 13 -14 26 -23 28 -20 3 3 10 1 16 -4 60 -48 213 -91 327
-91 l70 0 -2 -68 c-2 -86 38 -246 83 -328 89 -164 152 -228 293 -297 125 -62
127 -62 315 -62 155 0 183 3 245 23 149 48 194 74 286 164 210 208 281 431
218 694 -26 111 -40 147 -99 265 l-49 96 157 154 c86 84 313 307 503 494 577
567 802 785 813 785 6 0 22 -12 36 -27 14 -14 49 -42 78 -61 28 -19 52 -39 52
-43 0 -5 4 -9 10 -9 5 0 39 -21 76 -47 81 -59 82 -59 251 -160 149 -88 176
-102 298 -158 139 -64 145 -67 130 -81 -7 -8 -23 -30 -36 -51 -13 -21 -29 -44
-37 -52 -8 -8 -18 -24 -23 -35 -5 -12 -20 -39 -34 -61 -13 -22 -29 -53 -34
-70 -5 -16 -19 -55 -31 -85 -11 -30 -34 -93 -49 -140 -140 -420 -86 -853 156
-1237 66 -106 120 -172 233 -281 104 -102 142 -134 246 -203 122 -82 142 -93
250 -137 93 -38 292 -100 324 -100 8 0 53 -8 100 -18 74 -16 132 -19 440 -19
397 0 404 1 643 77 274 87 446 208 685 484 52 59 87 114 132 205 100 204 147
330 175 464 54 258 61 453 25 650 -12 66 -23 129 -24 140 -16 105 -122 331
-213 458 l-33 45 78 37 c42 21 91 44 107 52 17 7 48 25 70 38 22 14 49 30 60
35 11 6 34 19 50 30 17 11 44 27 60 36 48 26 175 113 242 166 35 26 66 48 70
48 4 0 16 9 28 20 l21 20 137 -136 c75 -75 137 -139 137 -142 0 -3 21 -25 48
-50 75 -72 720 -701 889 -868 l154 -151 -36 -62 c-19 -35 -35 -69 -35 -76 0
-7 -7 -18 -15 -25 -8 -7 -15 -21 -15 -32 0 -10 -6 -29 -14 -41 -8 -12 -18 -44
-21 -72 -4 -27 -13 -77 -21 -110 -29 -129 -2 -316 63 -435 44 -80 183 -220
219 -220 29 0 115 -41 108 -52 -3 -4 1 -5 8 -3 14 6 171 -58 164 -66 -2 -2 7
-5 21 -6 14 0 28 -5 32 -11 10 -16 115 -34 194 -33 193 1 381 97 483 247 22
31 49 70 61 88 12 17 22 37 22 43 1 7 10 27 21 45 11 18 20 42 20 54 0 11 4
24 9 30 12 12 31 138 31 202 l0 49 114 6 c72 4 128 12 152 23 104 45 143 66
195 107 57 46 149 158 149 183 0 8 5 14 10 14 6 0 10 8 10 18 0 9 7 25 15 36
7 10 21 44 30 75 10 31 21 69 26 85 13 41 11 280 -2 330 -15 58 -90 205 -116
230 -13 11 -23 27 -23 34 0 6 -3 12 -7 12 -5 0 -34 25 -65 54 -32 30 -58 51
-58 48 0 -4 -4 -2 -8 3 -17 24 -117 80 -187 105 -11 4 -36 13 -55 19 -19 7
-76 19 -126 27 -80 13 -105 13 -195 0 -107 -15 -232 -46 -284 -71 -28 -13 -32
-12 -60 13 -53 48 -196 186 -403 391 -112 111 -207 201 -212 201 -5 0 -12 10
-16 22 -3 12 -20 33 -38 47 -17 14 -87 81 -156 150 -69 68 -225 221 -347 339
-123 119 -223 220 -223 225 0 5 9 21 20 37 43 60 151 271 195 380 14 36 30 74
35 85 32 74 106 291 129 380 20 81 58 256 76 355 17 92 19 100 35 270 17 165
14 157 57 164 82 12 263 36 348 46 50 6 104 12 120 14 17 2 62 7 100 10 151
14 650 93 790 126 189 43 257 57 332 66 17 2 44 9 58 14 14 6 39 10 54 10 16
0 47 7 70 15 23 8 58 16 79 19 20 2 69 12 107 21 39 9 111 25 160 36 50 12
118 28 153 36 l63 16 -43 20 c-24 11 -52 23 -63 28 -11 4 -63 25 -115 47 -52
22 -122 49 -155 62 -56 20 -281 114 -350 145 -25 11 -59 23 -85 30 -9 3 -63
25 -150 61 -47 20 -107 45 -135 56 -27 11 -65 26 -83 34 -18 8 -39 14 -47 14
-8 0 -29 6 -47 14 -18 8 -94 33 -168 56 -74 23 -160 50 -190 60 -30 10 -80 25
-110 34 -30 8 -77 22 -105 30 -27 8 -68 18 -90 23 -50 9 -43 7 -90 21 -22 6
-78 20 -125 32 -47 12 -108 28 -136 36 -28 7 -58 14 -68 14 -9 0 -49 9 -89 19
-39 11 -107 27 -150 36 -54 12 -80 22 -83 34 -3 9 -12 32 -21 51 -8 19 -17 44
-19 55 -2 11 -10 34 -18 50 -8 17 -22 50 -32 75 -30 80 -107 244 -137 295 -17
28 -43 75 -59 105 -16 30 -36 67 -46 82 -9 14 -30 48 -46 75 -16 26 -36 54
-43 61 -7 7 -13 15 -13 17 0 6 47 55 52 55 2 0 47 42 99 93 52 51 222 216 379
367 156 151 318 309 360 350 192 192 645 633 704 685 63 55 66 56 88 41 12 -9
32 -16 43 -16 11 0 29 -6 40 -14 11 -7 36 -16 55 -19 19 -3 65 -12 101 -20
110 -25 217 -19 369 21 19 5 71 28 115 52 44 23 93 49 110 58 45 24 186 171
223 233 66 113 77 157 77 329 0 191 -15 251 -95 397 -104 192 -323 321 -542
323 l-68 0 0 50 c0 45 -43 241 -58 265 -4 6 -7 12 -8 15 -7 38 -55 125 -97
180 -67 85 -233 210 -280 210 -7 0 -25 7 -42 16 -34 18 -272 28 -365 15z m261
-211 c161 -30 282 -147 343 -330 21 -63 26 -103 32 -252 l7 -177 196 -3 196
-3 60 -32 c107 -55 185 -149 227 -272 19 -54 23 -87 23 -186 0 -115 -1 -123
-32 -188 -59 -124 -193 -233 -353 -287 -139 -48 -318 -23 -522 72 l-89 41 -32
-29 c-32 -29 -226 -217 -592 -574 -425 -414 -820 -799 -1016 -987 l-95 -93
-96 113 c-87 101 -253 271 -381 388 l-48 44 83 80 c114 110 510 496 974 951
214 210 453 444 531 520 l142 139 -50 80 c-227 363 -236 629 -28 838 74 74
157 119 264 142 74 16 184 18 256 5z m-8561 -82 c153 -28 286 -132 360 -281
38 -76 43 -95 47 -174 4 -70 1 -107 -16 -173 -23 -91 -103 -265 -169 -367
l-41 -61 277 -273 c262 -257 391 -382 612 -594 52 -50 250 -242 438 -427 l344
-337 -39 -32 c-110 -93 -389 -388 -479 -508 -2 -2 -146 136 -321 306 -175 170
-354 343 -397 384 -44 41 -201 191 -349 334 -148 143 -347 335 -442 427 l-173
168 -86 -41 c-153 -71 -235 -92 -366 -92 -100 0 -124 3 -183 26 -98 37 -153
72 -230 146 -46 44 -78 86 -100 131 -31 62 -32 70 -32 185 0 91 5 133 19 175
50 146 119 230 234 287 l76 38 187 3 186 4 7 170 c10 240 46 347 152 459 116
121 267 158 484 117z m4490 -2083 c376 -45 689 -132 1020 -284 503 -231 935
-580 1270 -1026 98 -132 220 -317 220 -337 0 -6 -10 -8 -22 -5 -35 9 -587 84
-738 101 -1476 166 -2925 164 -4325 -8 -116 -15 -289 -40 -485 -71 -164 -26
-180 -28 -180 -20 0 17 152 256 207 325 384 489 788 815 1289 1043 388 177
699 254 1209 301 82 7 414 -4 535 -19z m575 -2130 c311 -14 818 -48 885 -60
14 -2 66 -7 115 -11 50 -3 97 -8 105 -9 8 -2 47 -6 85 -10 39 -3 122 -13 185
-21 914 -117 1649 -282 2396 -537 148 -51 623 -233 633 -243 2 -2 2 -7 -1 -10
-20 -20 -718 -136 -1193 -199 -66 -9 -167 -22 -225 -30 -58 -8 -148 -19 -200
-25 -52 -5 -111 -13 -131 -16 l-37 -6 -6 73 c-11 119 -26 180 -63 253 -72 143
-215 244 -398 280 -167 33 -632 79 -1075 106 -389 23 -533 31 -835 42 -407 16
-1705 16 -2105 0 -308 -12 -798 -37 -900 -47 -30 -2 -91 -7 -135 -10 -409 -29
-911 -96 -1095 -146 -145 -39 -283 -121 -367 -219 -73 -84 -132 -234 -133
-334 l0 -38 -67 6 c-181 18 -491 57 -688 86 -311 47 -602 95 -765 125 -47 9
-123 23 -170 31 -47 9 -86 17 -88 18 -11 11 235 124 458 209 354 136 839 278
1336 391 295 68 815 162 1134 205 239 33 301 41 395 51 50 6 110 12 135 15
411 47 938 80 1570 99 201 6 897 -5 1245 -19z m165 -625 c480 -18 526 -20 595
-25 39 -3 117 -7 175 -10 58 -3 137 -7 175 -10 649 -47 984 -86 1089 -126 75
-29 138 -86 173 -157 l28 -57 0 -220 c0 -695 -224 -1388 -623 -1930 -441 -598
-1089 -1043 -1834 -1260 -613 -179 -1228 -163 -1878 47 -901 291 -1620 878
-2004 1637 -230 454 -345 932 -350 1451 -1 185 11 224 97 317 92 98 182 138
402 177 325 58 802 108 1250 131 61 3 133 8 160 10 28 3 124 8 215 11 91 3
248 10 350 14 280 11 1701 11 1980 0z m-4025 -2640 c90 -125 188 -242 307
-366 l98 -101 -178 -174 c-97 -96 -233 -228 -302 -294 -69 -66 -344 -335 -612
-598 l-486 -478 51 -82 c199 -321 228 -557 93 -757 -91 -135 -220 -209 -399
-229 -233 -27 -413 67 -501 261 -47 102 -54 141 -62 330 l-7 166 -186 4 -187
3 -76 38 c-172 85 -268 273 -256 501 6 115 44 190 142 283 112 107 263 173
396 173 113 0 261 -40 393 -107 l69 -34 116 113 c64 62 205 199 312 303 107
105 341 332 520 505 179 173 403 391 498 484 95 93 177 165 181 160 4 -5 38
-52 76 -104z m6093 -217 c135 -131 368 -359 516 -507 149 -147 376 -370 503
-493 l233 -225 103 46 c110 49 227 83 318 93 137 14 327 -63 445 -181 114
-115 152 -220 134 -374 -12 -102 -32 -164 -75 -237 -50 -83 -87 -118 -169
-162 l-71 -38 -195 -5 -195 -5 -6 -175 c-7 -197 -22 -261 -84 -365 -93 -155
-224 -225 -419 -225 -267 1 -468 152 -532 401 -39 150 17 350 165 589 l53 84
-149 145 c-81 80 -413 409 -736 730 l-588 585 139 140 c132 134 216 231 311
359 24 31 46 57 48 57 3 0 116 -107 251 -237z m-1830 -1144 c61 -102 62 -104
43 -120 -20 -16 -302 -132 -353 -144 -21 -5 -29 -2 -37 14 -14 26 -92 243 -89
246 9 7 355 112 363 111 6 -1 38 -49 73 -107z m-2264 -6 c-1 -10 -22 -63 -48
-118 -25 -55 -47 -104 -49 -108 -5 -15 -317 124 -317 141 0 13 78 122 112 158
l29 31 137 -43 c113 -35 137 -46 136 -61z m282 -47 c66 -13 160 -30 210 -36
51 -7 98 -16 105 -20 10 -7 9 -32 -5 -127 -10 -65 -19 -123 -21 -129 -3 -11
-171 8 -355 40 -126 23 -170 35 -170 47 0 18 103 249 110 249 4 0 61 -11 126
-24z m1409 2 c2 -7 22 -66 45 -131 23 -65 40 -120 38 -123 -9 -8 -199 -42
-307 -54 -113 -13 -120 -11 -121 40 -1 14 -9 66 -19 115 -10 50 -16 93 -12 96
3 4 58 14 121 23 63 10 140 23 170 31 71 17 80 18 85 3z m-525 -72 c6 -11 45
-258 41 -261 -2 -3 -114 -5 -248 -5 -210 0 -243 2 -243 15 0 16 27 197 35 231
4 20 10 20 210 21 113 0 205 -1 205 -1z m1234 -178 c45 -154 68 -303 64 -413
l-3 -80 -70 -26 c-72 -28 -157 -53 -210 -64 l-30 -5 -73 214 c-41 119 -72 220
-70 226 2 6 78 39 168 73 91 35 174 68 185 75 26 15 35 15 39 0z m-2787 -41
c59 -24 132 -52 161 -61 28 -10 52 -23 52 -31 0 -9 -167 -452 -174 -462 -4 -5
-162 39 -200 56 -40 17 -43 22 -49 66 -17 123 1 288 43 382 21 49 47 93 54 93
2 0 53 -20 113 -43z m453 -141 c70 -15 298 -51 393 -61 57 -6 57 -7 57 -40 0
-18 -6 -66 -14 -106 -8 -41 -25 -130 -37 -199 -12 -69 -23 -126 -24 -128 -4
-5 -210 18 -340 38 -172 27 -309 50 -312 54 -2 2 33 97 78 212 45 115 85 219
90 232 6 16 15 22 27 18 9 -3 46 -12 82 -20z m1828 -206 c40 -118 76 -222 78
-230 4 -13 -28 -21 -194 -49 -110 -19 -205 -32 -212 -29 -6 2 -36 98 -65 213
-28 116 -55 220 -59 231 -6 21 -2 23 81 34 48 7 129 21 178 31 50 10 97 17
105 16 9 -2 40 -76 88 -217z m-542 -97 c32 -127 56 -235 53 -238 -24 -23 -801
-26 -815 -3 -3 5 13 113 36 241 l43 232 313 0 312 1 58 -233z m-1805 -238
c210 -68 294 -86 604 -130 291 -41 583 -58 900 -52 486 10 646 27 950 103 198
50 387 102 407 114 27 15 28 14 28 -39 0 -112 -104 -370 -220 -542 -66 -99
-194 -231 -300 -309 -352 -259 -890 -336 -1425 -205 -183 45 -370 129 -520
233 -108 75 -267 237 -338 345 -55 83 -147 264 -223 440 -37 87 -41 102 -20
94 7 -3 78 -26 157 -52z"/>
<path d="M6510 8134 c-291 -54 -454 -132 -632 -302 -218 -208 -338 -488 -338
-788 0 -312 116 -585 341 -800 317 -303 779 -386 1191 -214 298 123 544 409
628 725 157 599 -197 1196 -800 1351 -71 19 -129 26 -230 29 -74 2 -146 2
-160 -1z"/>
<path d="M9502 8126 c-168 -32 -296 -84 -431 -173 -455 -302 -614 -893 -375
-1392 127 -266 351 -465 629 -559 141 -47 197 -56 360 -56 193 0 317 28 480
109 174 86 292 183 404 334 140 190 211 407 211 651 0 244 -70 461 -209 648
-157 211 -380 360 -633 423 -109 26 -333 34 -436 15z"/>
<path d="M8025 6133 c-121 -44 -204 -118 -259 -233 -29 -61 -31 -73 -31 -175
0 -104 2 -114 34 -182 82 -175 272 -277 457 -246 144 25 264 117 327 250 30
64 32 75 32 178 0 104 -2 114 -33 176 -47 98 -109 161 -199 206 -71 35 -84 38
-177 41 -77 2 -113 -2 -151 -15z"/>
</g>
</svg>
